<svg xmlns="http://www.w3.org/2000/svg" version="1.1" xmlns:xlink="http://www.w3.org/1999/xlink" xmlns:svgjs="http://svgjs.com/svgjs" width="512" height="512" x="0" y="0" viewBox="0 0 64 64" style="enable-background:new 0 0 512 512" xml:space="preserve" class=""><g><path d="m54.8 44.48c.24-.42.73-.63 1.19-.48l2.35.77c.53.17 1.09-.12 1.26-.65l2-6.12h-10.52c-2.54 8.12-10.12 14-19.08 14s-16.54-5.88-19.08-14h-10.52l2 6.12c.17.53.73.82 1.26.65l2.35-.77c.46-.15.95.06 1.19.48 1.06 1.95 2.37 3.75 3.88 5.35.33.35.38.89.09 1.28l-1.45 2c-.33.45-.23 1.07.22 1.4l4.85 3.52c.45.33 1.08.23 1.4-.22l1.45-2c.29-.39.81-.51 1.25-.31 1.97.94 4.08 1.64 6.28 2.05.48.09.83.5.83.98v2.47c0 .55.45 1 1 1h6c.55 0 1-.45 1-1v-2.47c0-.48.35-.89.83-.98 2.2-.41 4.31-1.11 6.28-2.05.44-.2.96-.08 1.25.31l1.45 2c.32.45.95.55 1.4.22l4.85-3.52c.45-.33.55-.95.22-1.4l-1.45-2c-.29-.39-.24-.93.09-1.28 1.51-1.6 2.82-3.4 3.88-5.35z" fill="#e4393e" data-original="#000000" class=""></path><path d="m1 34h62v2h-62z" fill="#e4393e" data-original="#000000" class=""></path><path d="m3 17h8v15h-8z" fill="#e4393e" data-original="#000000" class=""></path><path d="m27 13h10v19h-10z" fill="#e4393e" data-original="#000000" class=""></path><path d="m53 18h8v14h-8z" fill="#e4393e" data-original="#000000" class=""></path><path d="m39 13v19h12v-30h-12zm7-7h2v2h-2zm0 5h2v2h-2zm0 5h2v2h-2zm-4-10h2v2h-2zm0 5h2v2h-2zm0 5h2v2h-2z" fill="#e4393e" data-original="#000000" class=""></path><path d="m13 32h12v-24l-6-5-6 5zm3-22h6v2h-6zm0 5h6v2h-6z" fill="#e4393e" data-original="#000000" class=""></path></g></svg>